<svg width="96" height="29" viewBox="0 0 96 29" fill="none" xmlns="http://www.w3.org/2000/svg">
<path d="M11.568 12.288C12.304 12.672 12.88 13.208 13.296 13.896C13.712 14.568 13.92 15.336 13.92 16.2C13.92 17.576 13.432 18.72 12.456 19.632C11.48 20.544 10.288 21 8.88 21H1.68V4.2H8.352C9.728 4.2 10.888 4.648 11.832 5.544C12.792 6.44 13.272 7.544 13.272 8.856C13.272 10.296 12.704 11.44 11.568 12.288ZM8.352 6.792H4.44V11.208H8.352C8.96 11.208 9.472 11 9.888 10.584C10.304 10.152 10.512 9.624 10.512 9C10.512 8.376 10.304 7.856 9.888 7.44C9.472 7.008 8.96 6.792 8.352 6.792ZM4.44 18.408H8.88C9.52 18.408 10.056 18.184 10.488 17.736C10.936 17.272 11.16 16.712 11.16 16.056C11.16 15.4 10.936 14.848 10.488 14.4C10.056 13.936 9.52 13.704 8.88 13.704H4.44V18.408ZM18.6084 6.72C18.2884 7.04 17.9044 7.2 17.4564 7.2C17.0084 7.2 16.6164 7.04 16.2804 6.72C15.9604 6.384 15.8004 5.992 15.8004 5.544C15.8004 5.096 15.9604 4.712 16.2804 4.392C16.6004 4.056 16.9924 3.888 17.4564 3.888C17.9204 3.888 18.3124 4.056 18.6324 4.392C18.9524 4.712 19.1124 5.096 19.1124 5.544C19.1124 5.992 18.9444 6.384 18.6084 6.72ZM18.7524 21H16.1604V9H18.7524V21ZM28.458 9V11.496H25.482V17.256C25.482 17.752 25.594 18.112 25.818 18.336C26.042 18.544 26.37 18.664 26.802 18.696C27.25 18.712 27.802 18.704 28.458 18.672V21C26.474 21.24 25.05 21.072 24.186 20.496C23.322 19.904 22.89 18.824 22.89 17.256V11.496H20.682V9H22.89V6.408L25.482 5.64V9H28.458ZM77.7086 12.288C78.4446 12.672 79.0206 13.208 79.4366 13.896C79.8526 14.568 80.0606 15.336 80.0606 16.2C80.0606 17.576 79.5726 18.72 78.5966 19.632C77.6206 20.544 76.4286 21 75.0206 21H67.8206V4.2H74.4926C75.8686 4.2 77.0286 4.648 77.9726 5.544C78.9326 6.44 79.4126 7.544 79.4126 8.856C79.4126 10.296 78.8446 11.44 77.7086 12.288ZM74.4926 6.792H70.5806V11.208H74.4926C75.1006 11.208 75.6126 11 76.0286 10.584C76.4446 10.152 76.6526 9.624 76.6526 9C76.6526 8.376 76.4446 7.856 76.0286 7.44C75.6126 7.008 75.1006 6.792 74.4926 6.792ZM70.5806 18.408H75.0206C75.6606 18.408 76.1966 18.184 76.6286 17.736C77.0766 17.272 77.3006 16.712 77.3006 16.056C77.3006 15.4 77.0766 14.848 76.6286 14.4C76.1966 13.936 75.6606 13.704 75.0206 13.704H70.5806V18.408ZM84.7491 6.72C84.4291 7.04 84.0451 7.2 83.5971 7.2C83.1491 7.2 82.7571 7.04 82.4211 6.72C82.1011 6.384 81.9411 5.992 81.9411 5.544C81.9411 5.096 82.1011 4.712 82.4211 4.392C82.7411 4.056 83.1331 3.888 83.5971 3.888C84.0611 3.888 84.4531 4.056 84.7731 4.392C85.0931 4.712 85.2531 5.096 85.2531 5.544C85.2531 5.992 85.0851 6.384 84.7491 6.72ZM84.8931 21H82.3011V9H84.8931V21ZM94.5986 9V11.496H91.6226V17.256C91.6226 17.752 91.7346 18.112 91.9586 18.336C92.1826 18.544 92.5106 18.664 92.9426 18.696C93.3906 18.712 93.9426 18.704 94.5986 18.672V21C92.6146 21.24 91.1906 21.072 90.3266 20.496C89.4626 19.904 89.0306 18.824 89.0306 17.256V11.496H86.8226V9H89.0306V6.408L91.6226 5.64V9H94.5986Z" fill="#00CAC9"/>
<path d="M37.6221 9V11.496H34.6461V17.256C34.6461 17.752 34.7581 18.112 34.9821 18.336C35.2061 18.544 35.5341 18.664 35.9661 18.696C36.4141 18.712 36.9661 18.704 37.6221 18.672V21C35.6381 21.24 34.2141 21.072 33.3501 20.496C32.4861 19.904 32.0541 18.824 32.0541 17.256V11.496H29.8461V9H32.0541V6.408L34.6461 5.64V9H37.6221ZM51.0728 16.104H41.5208C41.7128 17 42.1448 17.696 42.8168 18.192C43.5048 18.688 44.3528 18.936 45.3608 18.936C46.7208 18.936 47.7528 18.44 48.4568 17.448L50.5928 18.696C49.4248 20.44 47.6728 21.312 45.3368 21.312C43.4008 21.312 41.8248 20.72 40.6088 19.536C39.4088 18.336 38.8088 16.824 38.8088 15C38.8088 13.224 39.4008 11.728 40.5848 10.512C41.7528 9.296 43.2728 8.688 45.1448 8.688C46.8888 8.688 48.3288 9.304 49.4648 10.536C50.6008 11.768 51.1688 13.264 51.1688 15.024C51.1688 15.344 51.1368 15.704 51.0728 16.104ZM41.4967 13.992H48.5528C48.3768 13.048 47.9768 12.32 47.3528 11.808C46.7448 11.296 46.0008 11.04 45.1208 11.04C44.1608 11.04 43.3608 11.304 42.7208 11.832C42.0808 12.36 41.6728 13.08 41.4967 13.992ZM56.0415 9V11.016C56.6975 9.528 57.9295 8.784 59.7375 8.784V11.592C58.7615 11.528 57.8975 11.768 57.1455 12.312C56.4095 12.84 56.0415 13.72 56.0415 14.952V21H53.4495V9H56.0415Z" fill="#0F3843"/>
<path d="M65 14.5C65 13.6716 64.3284 13 63.5 13C62.6716 13 62 13.6716 62 14.5C62 15.3284 62.6716 16 63.5 16C64.3284 16 65 15.3284 65 14.5Z" fill="#00CAC9"/>
</svg>
